<svg width="22" height="22" viewBox="0 0 22 22" fill="none" xmlns="http://www.w3.org/2000/svg">
<path d="M10.6042 3.22145e-05C12.73 0.000584942 14.8078 0.631361 16.5751 1.81262C18.3425 2.99389 19.7199 4.6726 20.5333 6.63656C21.3467 8.60052 21.5596 10.7616 21.145 12.8465C20.7305 14.9314 19.7071 16.8466 18.2042 18.35C16.1756 20.3023 13.4622 21.3808 10.6469 21.3538C7.83167 21.3268 5.13937 20.1964 3.1486 18.2057C1.15783 16.2149 0.0274917 13.5226 0.000494878 10.7073C-0.0265019 7.8921 1.052 5.17861 3.00423 3.15003C3.99986 2.1486 5.18422 1.35457 6.48875 0.813874C7.79328 0.27318 9.19209 -0.00343606 10.6042 3.22145e-05ZM10.6042 20C12.4337 20 14.2221 19.4575 15.7433 18.4411C17.2644 17.4247 18.45 15.9801 19.1501 14.2899C19.8502 12.5996 20.0334 10.7398 19.6765 8.94545C19.3196 7.15112 18.4386 5.50293 17.145 4.20929C15.8513 2.91566 14.2031 2.03468 12.4088 1.67777C10.6145 1.32086 8.75462 1.50404 7.0644 2.20415C5.37419 2.90426 3.92954 4.08985 2.91313 5.61101C1.89673 7.13216 1.35423 8.92056 1.35423 10.75C1.35687 13.2025 2.33227 15.5537 4.06641 17.2878C5.80055 19.022 8.15179 19.9974 10.6042 20Z" fill="#808B94"/>
<path d="M10.6045 15.5C10.4056 15.5 10.2148 15.421 10.0742 15.2803C9.93351 15.1397 9.85449 14.9489 9.85449 14.75V10.75C9.85449 10.5511 9.93351 10.3603 10.0742 10.2197C10.2148 10.079 10.4056 10 10.6045 10C10.8034 10 10.9942 10.079 11.1348 10.2197C11.2755 10.3603 11.3545 10.5511 11.3545 10.75V14.75C11.3545 14.9489 11.2755 15.1397 11.1348 15.2803C10.9942 15.421 10.8034 15.5 10.6045 15.5Z" fill="#808B94"/>
<path d="M10.6095 7.50002C10.5106 7.50068 10.4125 7.48176 10.3209 7.44437C10.2294 7.40697 10.1461 7.35183 10.0759 7.28212C10.0058 7.21241 9.95006 7.12951 9.91206 7.03819C9.87405 6.94687 9.85449 6.84893 9.85449 6.75002C9.85449 6.6511 9.87405 6.55317 9.91206 6.46184C9.95006 6.37052 10.0058 6.28762 10.0759 6.21791C10.1461 6.1482 10.2294 6.09306 10.3209 6.05567C10.4125 6.01827 10.5106 5.99936 10.6095 6.00002C10.8084 6.00002 10.9992 6.07903 11.1398 6.21969C11.2805 6.36034 11.3595 6.5511 11.3595 6.75002C11.3595 6.94893 11.2805 7.13969 11.1398 7.28035C10.9992 7.421 10.8084 7.50002 10.6095 7.50002Z" fill="#808B94"/>
</svg>
